<?xml version="1.0" standalone="no"?>
<!DOCTYPE svg PUBLIC "-//W3C//DTD SVG 20010904//EN"
 "http://www.w3.org/TR/2001/REC-SVG-20010904/DTD/svg10.dtd">
<svg version="1.0" xmlns="http://www.w3.org/2000/svg"
 width="828.000000pt" height="828.000000pt" viewBox="0 0 828.000000 828.000000"
 preserveAspectRatio="xMidYMid meet">

<g transform="translate(0.000000,828.000000) scale(0.100000,-0.100000)"
fill="#000000" stroke="none">
<path d="M3257 7010 c-50 -15 -100 -99 -112 -187 -4 -26 -18 -72 -31 -101 -39
-85 -64 -190 -70 -290 -3 -57 -12 -110 -24 -136 -10 -23 -20 -61 -24 -84 -3
-23 -13 -68 -22 -99 -28 -97 -24 -143 37 -360 11 -40 10 -45 -20 -89 -17 -26
-31 -54 -31 -61 0 -8 -9 -31 -19 -52 -18 -34 -20 -64 -22 -337 -3 -330 2 -378
51 -429 15 -16 45 -57 65 -89 21 -33 54 -78 74 -100 20 -23 49 -58 65 -79 36
-49 135 -143 175 -168 17 -10 57 -44 89 -75 31 -30 67 -61 78 -67 28 -15 104
-104 104 -121 0 -12 21 -55 68 -137 23 -41 58 -190 74 -317 10 -75 15 -87 51
-128 42 -48 140 -104 182 -104 14 0 25 -3 26 -7 0 -5 2 -51 3 -103 1 -84 5
-101 30 -147 16 -29 41 -60 55 -69 14 -9 38 -27 52 -41 37 -34 75 -41 136 -27
62 14 116 53 151 109 22 34 26 56 32 155 8 117 15 150 32 150 5 0 32 -8 60
-17 48 -15 58 -15 156 0 113 19 201 58 257 117 16 16 39 30 51 30 22 0 135
-46 219 -90 77 -39 156 -20 243 60 63 57 114 212 147 440 8 58 19 123 25 145
5 22 10 85 10 139 l0 99 51 54 c27 29 60 74 71 100 12 26 41 79 64 117 24 39
53 99 65 136 12 36 33 87 46 113 14 29 24 65 23 90 0 23 0 226 0 451 1 390 0
410 -19 450 -19 37 -53 78 -96 115 -10 8 -15 22 -12 33 4 14 0 22 -13 25 -16
4 -17 9 -9 24 5 10 12 55 16 99 5 67 4 80 -9 80 -8 0 -35 28 -58 63 -111 159
-401 597 -411 621 -16 33 -39 33 -71 -1 -27 -29 -47 -83 -93 -243 -15 -52 -33
-102 -41 -111 -13 -15 -39 -16 -203 -13 -174 3 -194 1 -272 -21 -46 -13 -113
-36 -148 -50 -53 -22 -73 -26 -114 -21 -50 7 -129 30 -157 45 -49 27 -127 33
-265 21 -155 -13 -452 -27 -475 -22 -17 4 -48 88 -84 229 -14 50 -31 102 -39
115 -8 12 -22 49 -32 82 -27 91 -58 110 -138 86z m91 -155 c18 -50 42 -135 54
-190 24 -118 52 -197 76 -217 14 -12 64 -13 322 -8 283 6 309 5 360 -12 127
-44 272 -78 331 -78 14 0 62 18 106 40 147 74 201 85 423 86 261 1 240 -3 240
40 0 20 11 68 24 107 13 40 34 104 45 144 12 40 25 74 30 77 5 3 94 -121 197
-276 104 -155 210 -310 236 -345 35 -47 48 -73 48 -98 0 -42 -16 -85 -31 -85
-28 0 -163 128 -268 254 -72 86 -122 131 -178 160 -90 46 -51 -4 236 -293
l278 -283 23 -100 c21 -94 22 -114 16 -309 -5 -147 -4 -209 3 -209 6 0 11 -11
11 -25 0 -14 -4 -25 -9 -25 -6 0 -10 -66 -10 -157 1 -154 -5 -213 -21 -213 -4
0 -20 -35 -35 -77 -39 -107 -98 -222 -138 -268 l-34 -39 -7 52 c-8 61 -22 68
-30 15 -10 -63 -34 -273 -41 -353 -4 -41 -13 -102 -21 -135 -7 -33 -18 -94
-25 -135 -22 -149 -61 -263 -107 -317 -33 -38 -94 -73 -127 -73 -18 0 -70 17
-116 39 -46 21 -136 57 -199 81 -112 42 -119 43 -260 48 -185 6 -242 -9 -470
-121 -223 -109 -291 -114 -389 -31 -49 42 -81 100 -81 147 0 18 -6 57 -14 87
-34 134 -56 265 -56 342 0 90 -29 242 -50 261 -10 10 -11 0 -6 -48 15 -139 18
-225 9 -225 -5 0 -18 17 -28 38 -10 21 -50 63 -89 96 -160 132 -380 343 -414
396 -19 30 -57 81 -84 114 -110 133 -128 195 -128 458 0 256 16 350 74 438
129 194 179 268 227 336 55 77 159 269 159 292 0 7 9 12 20 12 13 0 20 7 20
20 0 30 -24 15 -69 -45 -23 -30 -41 -56 -41 -59 0 -9 -70 -125 -84 -139 -22
-21 -154 -224 -161 -247 -5 -16 -9 -18 -26 -7 -10 6 -19 23 -19 37 0 14 -12
52 -25 85 -14 33 -24 67 -24 75 1 8 5 4 9 -10 5 -16 8 8 9 72 1 110 15 174 61
273 22 49 34 96 41 159 16 142 102 414 142 449 35 31 49 17 85 -78z m-347
-790 c-6 -45 -9 -51 -10 -24 -1 40 10 110 16 94 1 -6 -1 -37 -6 -70z m1902
-2456 c26 -7 47 -16 47 -19 0 -17 -145 -101 -198 -114 -81 -21 -230 -22 -238
-1 -11 27 30 108 67 134 32 22 40 23 154 18 66 -3 141 -11 168 -18z m-467 -81
c-31 -108 -38 -146 -43 -238 -6 -117 -27 -171 -75 -196 -92 -48 -216 34 -234
153 -10 65 4 151 24 157 9 2 27 7 39 11 22 6 23 4 16 -40 -5 -42 -4 -47 13
-43 12 2 25 21 37 53 10 27 23 56 30 63 11 14 174 101 191 101 4 1 5 -9 2 -21z"/>
<path d="M3246 6476 c-34 -33 -96 -230 -96 -301 0 -30 4 -55 8 -55 25 0 69 90
96 195 18 71 31 185 22 185 -4 0 -18 -11 -30 -24z"/>
<path d="M3430 5587 c-85 -42 -100 -60 -67 -81 31 -19 187 72 187 109 0 24
-30 17 -120 -28z"/>
<path d="M5510 5572 c0 -21 35 -49 108 -86 58 -29 75 -32 91 -13 20 24 -17 53
-122 97 -60 25 -77 25 -77 2z"/>
<path d="M3625 5471 c-48 -13 -118 -52 -143 -80 -29 -33 -36 -61 -29 -114 11
-83 120 -147 249 -147 253 0 344 228 128 322 -50 21 -158 32 -205 19z m48 -72
c25 -30 22 -75 -8 -104 -49 -49 -125 -16 -125 55 0 73 86 105 133 49z m-9
-175 c19 -18 19 -20 6 -45 -14 -25 -56 -25 -70 1 -23 44 29 80 64 44z"/>
<path d="M5267 5410 c-174 -22 -207 -92 -64 -135 69 -21 254 -21 324 0 62 19
99 46 90 68 -10 27 -78 55 -161 66 -84 12 -102 12 -189 1z m181 -32 c7 -7 12
-21 12 -33 0 -12 -5 -26 -12 -33 -7 -7 -21 -12 -33 -12 -12 0 -26 5 -33 12 -7
7 -12 21 -12 33 0 12 5 26 12 33 7 7 21 12 33 12 12 0 26 -5 33 -12z m70 -76
c3 -16 -2 -22 -17 -22 -24 0 -35 15 -27 36 9 23 40 13 44 -14z"/>
<path d="M4525 5005 c-22 -8 -41 -15 -42 -15 -2 0 -3 -6 -3 -14 0 -24 50 -31
188 -28 119 3 132 5 132 22 0 42 -188 66 -275 35z"/>
<path d="M4560 4810 c-113 -7 -174 -23 -167 -44 5 -15 445 -20 482 -6 17 7 25
16 23 28 -5 29 -110 36 -338 22z"/>
<path d="M4405 4513 c-95 -8 -106 -42 -67 -203 32 -135 38 -147 79 -159 l31
-9 7 72 c5 39 8 74 7 79 -1 4 5 7 13 7 8 0 15 -8 15 -19 0 -33 69 -233 87
-254 48 -53 119 -61 179 -21 21 15 78 66 125 115 47 49 89 89 92 89 3 0 1 -14
-5 -31 -6 -16 -8 -33 -4 -36 3 -3 1 -12 -5 -19 -20 -24 21 -29 60 -8 28 15 45
38 79 104 45 88 47 110 16 158 -8 12 -22 22 -32 22 -9 0 -28 6 -42 13 -32 17
-119 34 -240 47 -52 6 -126 20 -165 32 -73 21 -145 28 -230 21z"/>
<path d="M5450 4162 c0 -24 33 -62 54 -62 26 0 18 34 -14 58 -36 27 -40 27
-40 4z"/>
<path d="M3896 3992 c-23 -25 -25 -31 -12 -41 17 -14 51 -1 73 28 36 46 -18
57 -61 13z"/>
<path d="M5384 3875 c24 -18 49 -20 44 -2 -3 6 -18 13 -34 15 -28 2 -28 2 -10
-13z"/>
<path d="M4150 3853 c-24 -9 -50 -35 -44 -44 8 -13 64 19 64 36 0 8 -1 15 -2
14 -2 0 -10 -3 -18 -6z"/>
<path d="M3930 3777 c0 -17 29 -57 41 -57 16 0 10 36 -9 53 -22 20 -32 21 -32
4z"/>
<path d="M5260 3717 c0 -23 17 -47 32 -47 9 0 11 32 2 54 -9 24 -34 19 -34 -7z"/>
<path d="M4660 3585 c-21 -26 1 -36 71 -33 56 3 64 5 64 23 0 17 -8 20 -61 23
-46 2 -64 -1 -74 -13z"/>
<path d="M2611 3475 c-508 -89 -1071 -527 -1242 -965 -30 -77 -33 -95 -33
-195 -1 -103 1 -114 30 -175 64 -135 144 -190 274 -190 128 0 240 48 335 144
111 111 187 244 200 346 4 30 13 95 22 143 8 49 12 91 10 93 -3 3 -35 -48 -73
-113 -155 -270 -299 -416 -436 -445 -71 -15 -118 1 -161 54 -25 31 -30 48 -35
107 -6 89 21 180 89 292 63 106 112 164 241 291 292 285 709 476 1018 466 96
-3 112 -6 172 -36 76 -37 132 -95 151 -156 18 -60 14 -210 -6 -277 -48 -154
-211 -350 -422 -508 -140 -105 -369 -241 -382 -227 -6 6 40 98 108 214 27 45
49 85 49 87 0 4 24 41 61 95 106 156 170 264 167 283 -3 19 -10 22 -57 25 -30
2 -64 1 -76 -2 -23 -6 -114 -123 -222 -286 -189 -284 -414 -729 -498 -988 -21
-65 -13 -89 52 -156 46 -46 80 -63 106 -53 7 3 24 45 37 94 32 122 92 305 126
386 28 65 31 68 84 88 82 31 253 118 356 182 263 163 484 372 588 555 64 113
88 195 94 314 4 96 2 116 -21 190 -49 158 -141 247 -317 310 -74 27 -272 33
-389 13z m321 -30 c190 -40 311 -147 358 -316 87 -317 -127 -663 -606 -979
-111 -74 -304 -174 -401 -209 -58 -21 -63 -26 -84 -74 -36 -84 -115 -315 -139
-409 -13 -49 -28 -88 -33 -88 -6 0 -33 23 -60 51 -46 48 -49 54 -44 93 9 83
187 485 302 686 21 36 48 84 61 107 118 209 310 477 347 487 28 7 87 8 87 1 0
-3 -35 -58 -78 -123 -178 -268 -366 -601 -349 -618 10 -10 250 120 372 201
385 256 599 571 555 816 -21 114 -57 172 -145 231 -72 48 -129 62 -250 61
-519 -2 -1231 -518 -1350 -978 -29 -114 10 -236 90 -283 55 -32 139 -27 220
12 101 50 229 185 328 348 41 68 42 66 26 -31 -13 -76 -24 -99 -89 -196 -107
-158 -235 -242 -381 -252 -95 -7 -145 10 -206 69 -172 168 -114 486 143 783
70 81 175 183 254 246 342 272 790 424 1072 364z"/>
<path d="M5203 2942 c-7 -4 -69 -102 -139 -217 -69 -116 -130 -216 -136 -223
-8 -9 -18 -8 -45 9 -106 66 -320 -74 -423 -278 -16 -32 -46 -74 -67 -94 -63
-59 -133 -112 -140 -106 -7 8 11 53 81 198 61 126 69 174 41 233 -29 61 -103
83 -167 50 -18 -9 -56 -39 -85 -67 -39 -37 -53 -45 -53 -32 0 28 -48 103 -70
110 -27 9 -60 -3 -60 -21 0 -8 -4 -14 -8 -14 -5 0 -45 -44 -90 -97 -133 -159
-336 -363 -362 -363 -6 0 -10 5 -10 12 0 17 78 175 116 236 41 63 42 85 7 137
-30 45 -52 64 -71 65 -7 0 -30 11 -50 25 -48 33 -92 32 -167 -4 -112 -53 -236
-194 -293 -334 -36 -89 -42 -208 -13 -265 52 -101 168 -97 259 9 40 46 48 48
57 12 19 -85 109 -117 198 -72 23 12 78 56 121 98 44 42 76 67 71 56 -36 -90
12 -175 98 -175 42 0 42 -1 148 136 46 59 99 124 117 143 l34 36 -6 -30 c-3
-16 -11 -54 -17 -84 -21 -108 15 -193 88 -207 41 -8 119 25 187 79 l39 31 16
-24 c69 -107 150 -111 252 -12 l59 58 11 -33 c5 -18 23 -46 39 -63 24 -25 35
-30 77 -30 51 0 90 19 162 78 l40 33 15 -28 c8 -15 28 -41 45 -57 25 -24 42
-30 90 -34 71 -5 127 19 201 85 46 41 48 42 103 36 69 -7 136 15 185 61 19 17
68 74 110 126 112 140 142 172 142 155 0 -8 -3 -15 -8 -15 -4 0 -36 -48 -72
-106 -57 -95 -65 -113 -68 -168 -3 -53 0 -66 24 -103 32 -48 59 -63 117 -63
49 0 106 25 161 69 45 36 53 38 61 12 9 -31 55 -70 93 -81 48 -13 107 14 167
76 25 25 47 45 48 43 2 -2 11 -22 21 -44 26 -59 57 -78 120 -73 64 5 104 31
214 140 109 109 156 205 123 256 -10 17 -22 -8 -26 -55 -3 -44 -38 -94 -132
-190 -120 -122 -197 -152 -249 -96 -32 34 -38 62 -30 134 3 32 4 59 2 59 -2 0
-19 -24 -37 -52 -43 -68 -105 -136 -140 -154 -70 -36 -142 4 -155 85 -4 23 -9
41 -11 41 -3 0 -31 -23 -62 -52 -93 -85 -165 -107 -227 -69 -38 23 -59 77 -51
128 8 45 46 119 108 207 55 78 59 98 27 121 -22 15 -24 14 -41 -7 -10 -13 -24
-30 -30 -38 -7 -8 -43 -53 -81 -100 -93 -115 -124 -147 -172 -181 -51 -35
-109 -45 -158 -29 -36 12 -37 11 -84 -34 -103 -102 -216 -124 -275 -54 -15 18
-33 52 -39 76 l-10 42 -62 -58 c-66 -62 -118 -92 -159 -92 -63 0 -109 90 -87
171 6 23 10 43 8 45 -2 2 -30 -32 -61 -76 -67 -93 -112 -130 -165 -137 -52 -7
-99 32 -108 88 -4 22 -10 41 -13 43 -4 3 -24 -12 -46 -31 -76 -68 -140 -103
-189 -103 -61 0 -76 22 -76 113 0 74 37 204 86 300 13 28 23 51 21 53 -8 8
-203 -222 -321 -379 -65 -87 -92 -101 -134 -70 -42 31 -49 63 -24 114 46 98
82 182 79 186 -2 1 -61 -56 -131 -128 -71 -72 -149 -144 -174 -160 -109 -69
-182 -10 -169 135 6 60 6 60 -11 36 -126 -182 -201 -233 -270 -184 -105 73
-47 313 116 486 104 110 200 155 263 123 16 -9 35 -27 41 -40 12 -27 24 -32
31 -12 7 19 38 -4 59 -44 l18 -35 -65 -119 c-90 -165 -114 -255 -69 -255 38 0
279 227 389 365 22 27 45 55 50 61 6 6 27 30 48 53 37 41 39 42 58 25 10 -9
24 -35 31 -56 9 -32 9 -41 -5 -56 -21 -23 -99 -190 -95 -202 2 -5 23 19 46 55
24 35 81 104 128 153 118 127 170 147 226 92 27 -28 30 -36 26 -80 -3 -31 -25
-89 -63 -167 -83 -169 -102 -232 -75 -248 14 -9 125 74 191 142 31 32 71 85
89 118 96 175 284 304 366 250 14 -9 29 -28 35 -42 5 -15 13 -22 18 -17 9 9
143 229 239 392 30 50 61 92 68 92 14 0 64 -67 64 -86 0 -7 -42 -79 -92 -162
-253 -409 -290 -475 -328 -573 -53 -141 -1 -141 150 -2 48 44 76 81 105 138
41 82 129 181 202 229 60 40 106 48 162 29 34 -11 50 -12 63 -4 27 17 83 13
100 -6 57 -65 20 -179 -110 -346 -25 -31 -43 -60 -40 -63 3 -3 22 -2 42 1 48
10 114 63 170 139 25 35 56 72 67 82 11 10 37 40 56 67 27 36 33 51 24 60 -6
6 -11 34 -11 62 0 64 38 143 85 179 65 50 145 25 145 -46 0 -29 -36 -110 -72
-160 l-19 -27 51 -49 c73 -71 71 -90 -30 -238 -44 -65 -80 -128 -80 -141 0
-33 26 -39 69 -17 39 21 221 198 221 216 0 22 91 146 147 200 71 67 130 99
190 101 37 2 49 -2 68 -25 12 -15 26 -33 29 -40 5 -10 7 -10 12 0 11 23 34 12
61 -29 27 -41 27 -41 9 -73 -154 -263 -185 -403 -73 -324 38 27 110 92 185
170 30 32 60 54 66 51 6 -4 5 1 -3 10 -7 9 -17 17 -22 17 -5 0 -51 -42 -102
-93 -50 -52 -107 -104 -126 -117 l-34 -24 7 30 c7 28 78 174 126 259 16 27 21
49 17 66 -8 31 -74 109 -92 109 -8 0 -31 11 -51 25 -23 16 -51 25 -74 25 -42
0 -137 -44 -193 -91 -51 -42 -147 -164 -173 -219 -32 -67 -243 -265 -221 -206
3 8 37 62 75 118 38 57 72 111 75 122 12 31 -11 93 -49 133 l-36 38 36 71 c45
88 48 139 10 183 -76 91 -219 9 -260 -149 -13 -50 -14 -72 -5 -99 11 -37 6
-47 -64 -126 -15 -16 -44 -52 -65 -80 -44 -58 -97 -111 -105 -103 -3 3 8 22
25 43 17 21 47 71 67 111 31 63 35 80 31 127 -8 99 -70 147 -149 114 -28 -11
-39 -11 -64 -1 -49 21 -89 16 -153 -18 -100 -54 -195 -154 -250 -264 -21 -42
-55 -83 -107 -132 -43 -40 -82 -72 -87 -72 -26 0 31 126 133 295 37 60 117
193 178 294 61 102 111 194 111 206 0 24 -55 115 -69 115 -5 0 -15 2 -23 5 -7
3 -18 1 -25 -3z"/>
<path d="M5952 2553 c-36 -58 -50 -97 -31 -91 12 4 79 114 79 131 0 20 -21 2
-48 -40z"/>
<path d="M3365 2388 c-118 -62 -259 -264 -260 -372 0 -29 5 -51 12 -53 19 -7
155 130 247 248 81 104 108 161 91 188 -10 17 -46 12 -90 -11z m34 -80 c-13
-18 -26 -35 -29 -38 -4 -3 -26 -30 -49 -60 -53 -68 -169 -190 -181 -190 -13 0
19 88 53 145 38 64 119 149 177 187 43 28 45 28 48 8 2 -11 -7 -35 -19 -52z"/>
<path d="M4774 2384 c-65 -43 -152 -135 -194 -204 -47 -78 -78 -184 -60 -205
17 -21 41 -5 128 83 95 97 208 243 222 288 22 65 -26 85 -96 38z m66 -23 c0
-17 -71 -118 -135 -191 -68 -78 -139 -150 -147 -150 -23 0 29 118 88 200 45
62 157 159 187 160 4 0 7 -8 7 -19z"/>
<path d="M5388 2377 c-87 -67 -181 -208 -207 -311 -31 -127 41 -157 153 -64
l44 38 -5 72 c-6 83 13 152 66 239 17 27 31 51 31 54 0 16 -45 0 -82 -28z
m-30 -118 c-15 -37 -21 -78 -22 -130 -1 -83 -13 -107 -68 -135 -47 -24 -58
-19 -58 29 0 56 62 185 120 250 23 26 44 46 46 44 2 -2 -6 -28 -18 -58z"/>
<path d="M5536 2343 c-43 -68 -102 -201 -93 -210 10 -10 157 238 157 265 0 28
-23 8 -64 -55z"/>
<path d="M6530 2393 c-19 -10 -67 -49 -106 -88 -86 -85 -157 -216 -158 -292
-1 -29 4 -48 12 -50 26 -10 222 202 315 340 55 81 20 131 -63 90z m50 -49
c-11 -28 -67 -101 -169 -218 -43 -50 -109 -116 -116 -116 -10 0 18 79 50 137
41 76 118 161 184 204 50 32 65 30 51 -7z"/>
<path d="M4800 1460 c0 -193 1 -200 20 -200 19 0 20 7 20 168 l0 167 30 -35
c17 -19 47 -56 67 -82 21 -27 42 -48 48 -47 5 0 39 37 75 81 l65 82 3 -167 c2
-159 3 -167 22 -167 19 0 20 7 20 200 0 196 0 200 -20 197 -12 -2 -52 -42 -91
-91 -82 -102 -71 -103 -166 21 -90 117 -93 113 -93 -127z"/>
<path d="M5740 1584 c0 -73 -1 -75 -22 -69 -13 4 -31 9 -41 12 -29 8 -85 -16
-112 -48 -21 -25 -25 -41 -25 -90 0 -53 3 -63 33 -94 34 -37 47 -40 155 -34
l42 2 0 198 c0 170 -2 199 -15 199 -12 0 -15 -15 -15 -76z m-31 -95 l31 -11 0
-83 c0 -75 -2 -85 -22 -99 -70 -49 -159 22 -143 114 8 47 48 86 91 89 6 1 25
-4 43 -10z"/>
<path d="M6240 1459 c0 -186 1 -200 18 -197 14 3 17 16 18 88 l2 85 67 5 c60
4 70 8 96 38 21 24 29 42 29 71 0 75 -55 111 -172 111 l-58 0 0 -201z m171
145 c26 -24 25 -85 -1 -109 -12 -11 -41 -20 -74 -23 -51 -4 -54 -3 -60 22 -3
14 -3 51 0 82 l7 56 55 -5 c30 -3 62 -13 73 -23z"/>
<path d="M6793 1599 c-7 -7 -13 -28 -13 -46 0 -30 -3 -33 -31 -33 -38 0 -35
-24 4 -28 l27 -3 0 -102 c0 -56 4 -107 8 -113 18 -28 102 -27 102 1 0 10 -10
12 -34 8 -41 -6 -46 6 -46 124 l0 82 32 3 c43 4 48 26 6 30 -31 3 -33 6 -38
46 -4 35 -7 41 -17 31z"/>
<path d="M5310 1512 c-96 -48 -107 -173 -22 -237 34 -25 120 -25 158 -1 14 10
35 38 45 62 17 36 18 50 9 83 -14 54 -45 89 -88 101 -50 14 -61 13 -102 -8z
m118 -39 c42 -26 53 -83 27 -138 -39 -81 -159 -68 -184 20 -28 102 68 174 157
118z"/>
<path d="M5875 1518 c-16 -6 -33 -16 -37 -22 -14 -21 4 -25 37 -9 50 24 89 9
93 -34 3 -33 1 -35 -65 -48 -38 -8 -83 -56 -83 -89 0 -45 57 -73 116 -57 21 6
42 7 48 3 14 -10 26 -9 50 4 21 12 14 36 -8 28 -11 -4 -14 16 -18 95 -3 73 -8
105 -19 116 -20 21 -77 27 -114 13z m95 -171 c0 -35 -4 -46 -23 -56 -13 -7
-37 -11 -53 -9 -25 2 -29 8 -32 35 -3 28 2 36 30 53 18 11 43 20 56 20 19 0
22 -5 22 -43z"/>
<path d="M6550 1517 c-46 -16 -84 -85 -75 -139 11 -75 46 -115 110 -125 42 -7
125 22 125 43 0 18 -18 17 -50 -1 -66 -38 -150 10 -150 85 0 19 7 20 100 20
94 0 100 1 100 20 0 37 -30 81 -65 96 -40 17 -49 17 -95 1z m96 -42 c37 -37
27 -50 -42 -50 -70 -1 -84 3 -84 20 0 20 49 55 77 55 13 0 35 -11 49 -25z"/>
</g>
</svg>
